<svg xmlns="http://www.w3.org/2000/svg" version="1.1" xmlns:xlink="http://www.w3.org/1999/xlink" xmlns:svgjs="http://svgjs.dev/svgjs" width="600" height="600" preserveAspectRatio="none" viewBox="0 0 600 600"><g mask="url(&quot;#SvgjsMask1028&quot;)" fill="none"><rect width="600" height="600" x="0" y="0" fill="rgba(233, 239, 255, 1)"></rect><path d="M624.88 179.57C557.25 204.53 562.12 426.4 448.33 407.57 334.54 388.74 363.26-13.41 271.78-117.33" stroke="rgba(255, 255, 255, 1)" stroke-width="2"></path><path d="M650.39 445.7C598.95 444.38 554.56 370.7 458.73 370.7 362.91 370.7 403.39 482.76 267.08 445.7 130.76 408.64 170.63 46.36 75.42-44.45" stroke="rgba(255, 255, 255, 1)" stroke-width="2"></path><path d="M685.81 215.04C606.02 223.25 572.17 405 420.2 395.04 268.24 385.08 271.38-11.98 154.6-83.13" stroke="rgba(255, 255, 255, 1)" stroke-width="2"></path><path d="M669.41 477.84C584.35 461.12 558.8 294.99 413.53 243.84 268.26 192.69 343.44 34.91 285.59-4.02" stroke="rgba(255, 255, 255, 1)" stroke-width="2"></path><path d="M712.99 53.9C646.56 62.71 611.65 217.61 499.41 215.9 387.18 214.19 370.68-48.5 285.84-84.42" stroke="rgba(255, 255, 255, 1)" stroke-width="2"></path></g><defs><mask id="SvgjsMask1028"><rect width="600" height="600" fill="#ffffff"></rect></mask></defs></svg>