<svg xmlns="http://www.w3.org/2000/svg" version="1.1" xmlns:xlink="http://www.w3.org/1999/xlink" xmlns:svgjs="http://svgjs.dev/svgjs" width="600" height="600" preserveAspectRatio="none" viewBox="0 0 600 600"><g mask="url(&quot;#SvgjsMask1017&quot;)" fill="none"><rect width="600" height="600" x="0" y="0" fill="rgba(193, 196, 222, 1)"></rect><path d="M687.58 315.94C634.4 314.71 588.02 240.94 488.46 240.94 388.89 240.94 413.32 332.48 289.33 315.94 165.35 299.4 179.55-3.44 90.21-61.92" stroke="rgba(243, 243, 248, 1)" stroke-width="2"></path><path d="M606.74 195.8C545.35 210.61 533.39 384.45 429.5 375.8 325.62 367.15 336.85 45.43 252.27-23.77" stroke="rgba(243, 243, 248, 1)" stroke-width="2"></path><path d="M621.54 370.66C543.34 374.32 513.09 529.62 340.45 508.66 167.82 487.7 186.74 47.37 59.37-39" stroke="rgba(243, 243, 248, 1)" stroke-width="2"></path><path d="M715.96 290.97C665.08 289.62 621.31 215.97 526.67 215.97 432.02 215.97 452.93 304.4 337.37 290.97 221.81 277.54 231.76-2.64 148.08-54.62" stroke="rgba(243, 243, 248, 1)" stroke-width="2"></path><path d="M637.48 538.81C564.9 529.7 552.04 445.45 402.24 364.81 252.44 284.17 347.84 42.17 284.62-43.06" stroke="rgba(243, 243, 248, 1)" stroke-width="2"></path></g><defs><mask id="SvgjsMask1017"><rect width="600" height="600" fill="#ffffff"></rect></mask></defs></svg>